<svg width="21" height="19" viewBox="0 0 21 19" fill="none" xmlns="http://www.w3.org/2000/svg">
<path d="M21 2.84993V14.7399C21 15.7099 20.21 16.5999 19.24 16.7199L18.93 16.7599C17.29 16.9799 14.98 17.6599 13.12 18.4399C12.47 18.7099 11.75 18.2199 11.75 17.5099V3.59993C11.75 3.22993 11.96 2.88993 12.29 2.70993C14.12 1.71993 16.89 0.839932 18.77 0.679932H18.83C20.03 0.679932 21 1.64993 21 2.84993ZM9.70798 2.70993C7.87798 1.71993 5.10798 0.839932 3.22798 0.679932H3.15798C1.95798 0.679932 0.987976 1.64993 0.987976 2.84993V14.7399C0.987976 15.7099 1.77798 16.5999 2.74798 16.7199L3.05798 16.7599C4.69798 16.9799 7.00798 17.6599 8.86798 18.4399C9.51798 18.7099 10.238 18.2199 10.238 17.5099V3.59993C10.2393 3.41733 10.1906 3.23785 10.0972 3.08096C10.0038 2.92407 9.86916 2.79575 9.70798 2.70993ZM3.99798 5.73993H6.24798C6.44689 5.73993 6.63765 5.81895 6.77831 5.9596C6.91896 6.10025 6.99798 6.29102 6.99798 6.48993C6.99798 6.68884 6.91896 6.87961 6.77831 7.02026C6.63765 7.16091 6.44689 7.23993 6.24798 7.23993H3.99798C3.79906 7.23993 3.6083 7.16091 3.46765 7.02026C3.32699 6.87961 3.24798 6.68884 3.24798 6.48993C3.24798 6.29102 3.32699 6.10025 3.46765 5.9596C3.6083 5.81895 3.79906 5.73993 3.99798 5.73993ZM6.99798 10.2399H3.99798C3.79906 10.2399 3.6083 10.1609 3.46765 10.0203C3.32699 9.87961 3.24798 9.68884 3.24798 9.48993C3.24798 9.29102 3.32699 9.10025 3.46765 8.9596C3.6083 8.81895 3.79906 8.73993 3.99798 8.73993H6.99798C7.19689 8.73993 7.38765 8.81895 7.52831 8.9596C7.66896 9.10025 7.74798 9.29102 7.74798 9.48993C7.74798 9.68884 7.66896 9.87961 7.52831 10.0203C7.38765 10.1609 7.19689 10.2399 6.99798 10.2399Z" fill="black"/>
</svg>
