<svg width="20" height="21" viewBox="0 0 20 21" fill="none" xmlns="http://www.w3.org/2000/svg">
<path d="M18.75 20.75H0.75C0.34 20.75 0 20.41 0 20C0 19.59 0.34 19.25 0.75 19.25H18.75C19.16 19.25 19.5 19.59 19.5 20C19.5 20.41 19.16 20.75 18.75 20.75ZM3.35 6.379H1.75C1.2 6.379 0.75 6.829 0.75 7.379V15.999C0.75 16.549 1.2 16.999 1.75 16.999H3.35C3.9 16.999 4.35 16.549 4.35 15.999V7.379C4.35 6.819 3.9 6.379 3.35 6.379ZM10.55 3.191H8.95C8.4 3.191 7.95 3.641 7.95 4.191V16.001C7.95 16.551 8.4 17.001 8.95 17.001H10.55C11.1 17.001 11.55 16.551 11.55 16.001V4.191C11.55 3.641 11.1 3.191 10.55 3.191ZM17.75 0H16.15C15.6 0 15.15 0.45 15.15 1V16C15.15 16.55 15.6 17 16.15 17H17.75C18.3 17 18.75 16.55 18.75 16V1C18.75 0.45 18.3 0 17.75 0Z" fill="black"/>
</svg>
